<svg width="125" height="32" viewBox="0 0 125 32" fill="none" xmlns="http://www.w3.org/2000/svg">
<path d="M0 3C0 1.34315 1.34315 0 3 0H122C123.657 0 125 1.34315 125 3V29C125 30.6569 123.657 32 122 32H3C1.34314 32 0 30.6569 0 29V3Z" fill="#008605"/>
<path d="M47.5298 12.6378C47.473 12.0649 47.2292 11.6198 46.7983 11.3026C46.3674 10.9853 45.7827 10.8267 45.044 10.8267C44.5421 10.8267 44.1184 10.8977 43.7727 11.0398C43.4271 11.1771 43.1619 11.3688 42.9773 11.6151C42.7973 11.8613 42.7074 12.1406 42.7074 12.4531C42.6979 12.7135 42.7524 12.9408 42.8707 13.1349C42.9938 13.3291 43.1619 13.4972 43.375 13.6392C43.5881 13.7765 43.8343 13.8973 44.1136 14.0014C44.393 14.1009 44.6913 14.1861 45.0085 14.2571L46.3153 14.5696C46.9498 14.7116 47.5322 14.901 48.0625 15.1378C48.5928 15.3745 49.0521 15.6657 49.4403 16.0114C49.8286 16.357 50.1293 16.7642 50.3423 17.233C50.5601 17.7017 50.6714 18.2391 50.6761 18.8452C50.6714 19.7353 50.4441 20.5071 49.9943 21.1605C49.5492 21.8092 48.9053 22.3134 48.0625 22.6733C47.2244 23.0284 46.2135 23.206 45.0298 23.206C43.8556 23.206 42.8329 23.026 41.9616 22.6662C41.0952 22.3063 40.4181 21.7737 39.9304 21.0682C39.4474 20.358 39.1941 19.4796 39.1705 18.4332H42.1463C42.1795 18.9209 42.3191 19.3281 42.5653 19.6548C42.8163 19.9768 43.1501 20.2206 43.5668 20.3864C43.9882 20.5473 44.464 20.6278 44.9943 20.6278C45.5152 20.6278 45.9673 20.5521 46.3509 20.4006C46.7391 20.2491 47.0398 20.0384 47.2528 19.7685C47.4659 19.4986 47.5724 19.1884 47.5724 18.8381C47.5724 18.5114 47.4754 18.2367 47.2812 18.0142C47.0919 17.7917 46.8125 17.6023 46.4432 17.446C46.0786 17.2898 45.6312 17.1477 45.1009 17.0199L43.517 16.6222C42.2907 16.3239 41.3224 15.8575 40.6122 15.223C39.902 14.5885 39.5492 13.7339 39.554 12.6591C39.5492 11.7784 39.7836 11.009 40.2571 10.3509C40.7353 9.69271 41.3911 9.17898 42.2244 8.80966C43.0578 8.44034 44.0047 8.25568 45.0653 8.25568C46.1449 8.25568 47.0871 8.44034 47.892 8.80966C48.7017 9.17898 49.3314 9.69271 49.7812 10.3509C50.2311 11.009 50.4631 11.7713 50.4773 12.6378H47.5298ZM55.7134 8.45455V23H52.6879V8.45455H55.7134ZM61.2479 23.206C60.5518 23.206 59.9316 23.0852 59.3871 22.8438C58.8426 22.5975 58.4117 22.2353 58.0945 21.7571C57.782 21.2741 57.6257 20.6728 57.6257 19.9531C57.6257 19.3471 57.737 18.8381 57.9595 18.4261C58.1821 18.0142 58.4851 17.6828 58.8686 17.4318C59.2521 17.1809 59.6877 16.9915 60.1754 16.8636C60.6679 16.7358 61.1839 16.6458 61.7237 16.5938C62.3582 16.5275 62.8696 16.4659 63.2578 16.4091C63.6461 16.3475 63.9278 16.2576 64.103 16.1392C64.2782 16.0208 64.3658 15.8456 64.3658 15.6136V15.571C64.3658 15.1212 64.2237 14.7732 63.9396 14.527C63.6603 14.2808 63.2625 14.1577 62.7464 14.1577C62.2019 14.1577 61.7687 14.2784 61.4467 14.5199C61.1248 14.7566 60.9117 15.0549 60.8075 15.4148L58.0092 15.1875C58.1513 14.5246 58.4306 13.9517 58.8473 13.4688C59.264 12.9811 59.8014 12.607 60.4595 12.3466C61.1224 12.0814 61.8894 11.9489 62.7607 11.9489C63.3667 11.9489 63.9467 12.0199 64.5007 12.1619C65.0594 12.304 65.5542 12.5241 65.9851 12.8224C66.4207 13.1207 66.764 13.5043 67.0149 13.973C67.2659 14.437 67.3913 14.9934 67.3913 15.642V23H64.522V21.4872H64.4368C64.2616 21.8281 64.0272 22.1288 63.7337 22.3892C63.4401 22.6449 63.0874 22.8461 62.6754 22.9929C62.2635 23.1349 61.7876 23.206 61.2479 23.206ZM62.1143 21.1179C62.5594 21.1179 62.9524 21.0303 63.2933 20.8551C63.6342 20.6752 63.9018 20.4337 64.0959 20.1307C64.29 19.8277 64.3871 19.4844 64.3871 19.1009V17.9432C64.2924 18.0047 64.1622 18.0616 63.9964 18.1136C63.8355 18.161 63.6532 18.206 63.4496 18.2486C63.246 18.2865 63.0424 18.322 62.8388 18.3551C62.6352 18.3835 62.4505 18.4096 62.2848 18.4332C61.9297 18.4853 61.6196 18.5682 61.3544 18.6818C61.0893 18.7955 60.8833 18.9493 60.7365 19.1435C60.5897 19.3329 60.5163 19.5696 60.5163 19.8537C60.5163 20.2656 60.6655 20.5805 60.9638 20.7983C61.2668 21.0114 61.6503 21.1179 62.1143 21.1179ZM79.5185 12.0909L75.7045 23H72.2955L68.4815 12.0909H71.6776L73.9432 19.8963H74.0568L76.3153 12.0909H79.5185ZM85.6868 23.2131C84.5646 23.2131 83.5987 22.9858 82.7891 22.5312C81.9841 22.072 81.3639 21.4233 80.9283 20.5852C80.4927 19.7424 80.2749 18.7457 80.2749 17.5952C80.2749 16.473 80.4927 15.4882 80.9283 14.6406C81.3639 13.7931 81.977 13.1326 82.7678 12.6591C83.5632 12.1856 84.496 11.9489 85.5661 11.9489C86.2857 11.9489 86.9557 12.0649 87.576 12.2969C88.201 12.5241 88.7455 12.8674 89.2095 13.3267C89.6783 13.786 90.0429 14.3636 90.3033 15.0597C90.5637 15.7509 90.6939 16.5606 90.6939 17.4886V18.3196H81.4822V16.4446H87.8459C87.8459 16.009 87.7512 15.6231 87.5618 15.2869C87.3724 14.9508 87.1096 14.688 86.7734 14.4986C86.442 14.3045 86.0561 14.2074 85.6158 14.2074C85.1565 14.2074 84.7493 14.3139 84.3942 14.527C84.0438 14.7353 83.7692 15.017 83.5703 15.3722C83.3714 15.7225 83.2696 16.1132 83.2649 16.544V18.3267C83.2649 18.8665 83.3643 19.3329 83.5632 19.7259C83.7668 20.1188 84.0533 20.4219 84.4226 20.6349C84.7919 20.848 85.2299 20.9545 85.7365 20.9545C86.0727 20.9545 86.3804 20.9072 86.6598 20.8125C86.9392 20.7178 87.1783 20.5758 87.3771 20.3864C87.576 20.197 87.7275 19.965 87.8317 19.6903L90.63 19.875C90.4879 20.5473 90.1967 21.1345 89.7564 21.6364C89.3208 22.1335 88.7573 22.5218 88.0661 22.8011C87.3795 23.0758 86.5864 23.2131 85.6868 23.2131ZM95.6939 8.45455V23H92.6683V8.45455H95.6939ZM101.143 8.45455V23H98.1175V8.45455H101.143ZM108.496 23.2131C107.393 23.2131 106.438 22.9787 105.634 22.5099C104.833 22.0365 104.215 21.3783 103.78 20.5355C103.344 19.688 103.126 18.7055 103.126 17.5881C103.126 16.4612 103.344 15.4763 103.78 14.6335C104.215 13.786 104.833 13.1278 105.634 12.6591C106.438 12.1856 107.393 11.9489 108.496 11.9489C109.599 11.9489 110.551 12.1856 111.351 12.6591C112.156 13.1278 112.776 13.786 113.212 14.6335C113.647 15.4763 113.865 16.4612 113.865 17.5881C113.865 18.7055 113.647 19.688 113.212 20.5355C112.776 21.3783 112.156 22.0365 111.351 22.5099C110.551 22.9787 109.599 23.2131 108.496 23.2131ZM108.51 20.8693C109.012 20.8693 109.431 20.7273 109.767 20.4432C110.103 20.1544 110.357 19.7614 110.527 19.2642C110.702 18.767 110.79 18.2012 110.79 17.5668C110.79 16.9323 110.702 16.3665 110.527 15.8693C110.357 15.3722 110.103 14.9792 109.767 14.6903C109.431 14.4015 109.012 14.2571 108.51 14.2571C108.003 14.2571 107.577 14.4015 107.232 14.6903C106.891 14.9792 106.633 15.3722 106.457 15.8693C106.287 16.3665 106.202 16.9323 106.202 17.5668C106.202 18.2012 106.287 18.767 106.457 19.2642C106.633 19.7614 106.891 20.1544 107.232 20.4432C107.577 20.7273 108.003 20.8693 108.51 20.8693Z" fill="white"/>
<rect x="9" y="8" width="16" height="16" rx="2" fill="#D9D9D9"/>
<rect x="11.0513" y="10.7429" width="4.51282" height="10.5143" fill="#585858"/>
<rect x="18.4359" y="10.7429" width="4.51282" height="5.02857" fill="#585858"/>
</svg>
